<svg width="200" height="64" viewBox="0 0 200 64" fill="none" xmlns="http://www.w3.org/2000/svg">
<rect width="200" height="64" rx="32" fill="#FFEFB3"/>
<path d="M13.8789 27.6445C13.7012 25.9355 12.2656 24.9512 10.1328 24.9648C7.87695 24.9512 6.53711 26.0449 6.52344 27.5352C6.50977 29.2031 8.27344 29.8867 9.91406 30.2695L11.7734 30.7617C14.7266 31.4453 17.5703 33.0039 17.5703 36.4492C17.5703 39.9219 14.8223 42.3008 10.0781 42.3008C5.4707 42.3008 2.54492 40.0859 2.39453 36.1758H5.89453C6.05859 38.2402 7.79492 39.252 10.0508 39.2656C12.3887 39.252 14.002 38.1172 14.0156 36.4219C14.002 34.8633 12.5801 34.207 10.4336 33.6602L8.19141 33.0859C4.9375 32.2383 2.91406 30.5977 2.91406 27.7539C2.91406 24.2539 6.01758 21.9297 10.1875 21.9297C14.3848 21.9297 17.2422 24.2949 17.2969 27.6445H13.8789ZM23.8594 33.3047V42H20.3594V22.2031H23.7773V29.668H23.9688C24.6387 27.9863 26.0879 26.9609 28.3711 26.9609C31.4473 26.9609 33.4844 28.957 33.4844 32.5391V42H30.0117V33.0859C29.998 31.0625 28.918 29.9004 27.0859 29.9141C25.1992 29.9004 23.8594 31.1445 23.8594 33.3047ZM36.1094 37.8164C36.1094 34.4805 38.8848 33.5098 41.6328 33.332C42.6719 33.25 44.791 33.1543 45.4473 33.127L45.4336 31.9375C45.4336 30.4609 44.4902 29.6133 42.7539 29.6133C41.1953 29.6133 40.2383 30.3242 39.9648 31.3906H36.6016C36.8477 28.8613 39.1172 26.9609 42.8359 26.9609C45.6523 26.9609 48.9062 28.123 48.9062 32.0742V42H45.5703V39.9492H45.4609C44.8047 41.207 43.4238 42.3008 41.0859 42.3008C38.2559 42.3008 36.1094 40.7559 36.1094 37.8164ZM39.4727 37.7891C39.4727 39.0742 40.5254 39.7305 41.9883 39.7305C44.1074 39.7305 45.4609 38.3359 45.4609 36.668L45.4473 35.4512C44.8184 35.4785 42.877 35.6016 42.1797 35.6562C40.5254 35.793 39.4727 36.4902 39.4727 37.7891ZM52.1875 42V22.2031H55.6875V33.1133H55.9336L61.2656 27.1523H65.3398L59.584 33.5508L65.6953 42H61.5391L56.9727 35.6289L55.6875 36.9961V42H52.1875ZM73.3789 42.3008C68.9082 42.3008 66.1602 39.3203 66.1602 34.6719C66.1602 30.0781 68.9492 26.9609 73.1875 26.9609C76.8242 26.9609 79.9688 29.2441 79.9688 34.4531V35.5469H69.6055C69.6602 38.0762 71.1504 39.5801 73.4062 39.5664C74.9375 39.5801 75.9629 38.9238 76.4141 38.0352H79.832C79.2031 40.6055 76.8242 42.3008 73.3789 42.3008ZM69.6191 33.168H76.6328C76.6191 31.1445 75.252 29.668 73.2422 29.668C71.1504 29.668 69.7422 31.2812 69.6191 33.168ZM97.332 22.2031V42H93.75V25.6758H93.6406L89.0195 28.6289V25.375L93.9141 22.2031H97.332ZM109.445 42.2734C104.674 42.2734 101.83 38.582 101.844 32.1016C101.83 25.6484 104.701 21.9297 109.445 21.9297C114.189 21.9297 117.047 25.6484 117.047 32.1016C117.047 38.5957 114.203 42.2734 109.445 42.2734ZM105.426 32.1016C105.426 36.8594 106.957 39.2793 109.445 39.293C111.92 39.2793 113.465 36.8594 113.465 32.1016C113.451 27.3848 111.92 24.8965 109.445 24.8828C106.971 24.8965 105.439 27.3848 105.426 32.1016ZM134.109 27.1523V29.832H131.184V37.543C131.184 38.9648 131.895 39.252 132.77 39.2656C133.18 39.2793 133.863 39.2383 134.301 39.2109V42.0547C133.891 42.123 133.221 42.2051 132.332 42.1914C129.707 42.2051 127.684 40.9062 127.711 38.1172V29.832H125.578V27.1523H127.711V23.5977H131.184V27.1523H134.109ZM136.789 42V27.1523H140.289V42H136.789ZM136.543 23.1328C136.543 22.0938 137.459 21.2461 138.566 21.2461C139.674 21.2461 140.59 22.0938 140.59 23.1328C140.59 24.1855 139.674 25.0332 138.566 25.0469C137.459 25.0332 136.543 24.1855 136.543 23.1328ZM143.625 42V27.1523H146.961V29.668H147.152C147.768 27.9727 149.258 26.9609 151.227 26.9609C153.236 26.9609 154.686 27.9863 155.246 29.668H155.41C156.053 28.0273 157.707 26.9609 159.867 26.9609C162.588 26.9609 164.502 28.7109 164.488 32.0195V42H161.016V32.5664C161.016 30.7207 159.895 29.8867 158.473 29.8867C156.764 29.8867 155.766 31.0488 155.766 32.7305V42H152.375V32.4297C152.361 30.8848 151.35 29.8867 149.859 29.8867C148.355 29.8867 147.125 31.1309 147.125 32.9766V42H143.625ZM174.414 42.3008C169.943 42.3008 167.195 39.3203 167.195 34.6719C167.195 30.0781 169.984 26.9609 174.223 26.9609C177.859 26.9609 181.004 29.2441 181.004 34.4531V35.5469H170.641C170.695 38.0762 172.186 39.5801 174.441 39.5664C175.973 39.5801 176.998 38.9238 177.449 38.0352H180.867C180.238 40.6055 177.859 42.3008 174.414 42.3008ZM170.654 33.168H177.668C177.654 31.1445 176.287 29.668 174.277 29.668C172.186 29.668 170.777 31.2812 170.654 33.168ZM192.133 31.3906C191.914 30.2695 190.984 29.5449 189.508 29.5586C188.018 29.5449 186.924 30.2969 186.938 31.3086C186.924 32.0742 187.539 32.6484 189.043 33.0039L191.559 33.5234C194.361 34.1387 195.729 35.4375 195.742 37.5703C195.729 40.3594 193.281 42.3008 189.398 42.3008C185.625 42.3008 183.396 40.6055 183.027 37.7617H186.582C186.787 39.0332 187.771 39.6621 189.398 39.6484C191.08 39.6621 192.174 38.9785 192.188 37.8711C192.174 37.0098 191.504 36.4629 190.027 36.1484L187.648 35.6289C184.887 35.0684 183.451 33.6191 183.465 31.5C183.451 28.752 185.83 26.9609 189.453 26.9609C192.994 26.9609 195.182 28.6973 195.441 31.3906H192.133Z" fill="#363639"/>
</svg>
